<?xml version="1.0" encoding="UTF-8" standalone="no"?>
<!-- Created with Inkscape (http://www.inkscape.org/) -->

<svg
   version="1.1"
   id="svg1"
   width="466.66666"
   height="502"
   viewBox="0 0 466.66666 501.99999"
   sodipodi:docname="logo-padotopia.svg"
   xml:space="preserve"
   inkscape:version="1.4.2 (f4327f4, 2025-05-13)"
   xmlns:inkscape="http://www.inkscape.org/namespaces/inkscape"
   xmlns:sodipodi="http://sodipodi.sourceforge.net/DTD/sodipodi-0.dtd"
   xmlns="http://www.w3.org/2000/svg"
   xmlns:svg="http://www.w3.org/2000/svg"><defs
     id="defs1" /><sodipodi:namedview
     id="namedview1"
     pagecolor="#ffffff"
     bordercolor="#000000"
     borderopacity="0.25"
     inkscape:showpageshadow="2"
     inkscape:pageopacity="0.0"
     inkscape:pagecheckerboard="0"
     inkscape:deskcolor="#d1d1d1"
     inkscape:zoom="1.2912026"
     inkscape:cx="371.74646"
     inkscape:cy="286.9418"
     inkscape:window-width="1920"
     inkscape:window-height="991"
     inkscape:window-x="-9"
     inkscape:window-y="-9"
     inkscape:window-maximized="1"
     inkscape:current-layer="g1" /><g
     inkscape:groupmode="layer"
     inkscape:label="Image"
     id="g1"
     transform="translate(2.6468308,219.99225)"><ellipse
       style="fill:none;stroke:#000000;stroke-width:4.88034;stroke-dasharray:none;stroke-opacity:1"
       id="path2"
       cx="238.63161"
       cy="88.52626"
       rx="123.07519"
       ry="121.28526" /><rect
       style="fill:none;stroke:#000000;stroke-width:3.5;stroke-dasharray:none;stroke-opacity:1"
       id="rect1"
       width="247.53065"
       height="244.24487"
       x="115.00319"
       y="-33.332481" /><path
       style="fill:#000000"
       d="M 270.71245,193.31876 C 212.58848,181.04496 194.86524,69.60754 243.15063,20.01984 c 5.64989,-5.80228 5.80046,-6.22949 2.01603,-5.72036 -1.55833,0.20965 -8.15699,0.96895 -14.66368,1.68734 -24.90634,2.74985 -56.2141,10.53206 -81.83632,20.34217 -3.48333,1.33368 -7.83333,2.96933 -9.66666,3.63479 -10.48973,3.8075 -24.96821,10.33636 -43.666669,19.69084 -13.569495,6.78857 -15.398935,7.75516 -28.999999,15.32234 -10.794706,6.00581 -10.216337,5.65864 -28.986392,17.39936 -16.674148,10.42972 -15.050592,9.96967 -18.082029,5.12369 -1.318882,-2.10834 -3.483799,-5.5295 -4.810926,-7.60258 -2.412957,-3.76924 -2.412957,-3.76924 2.066529,-6.53495 2.463717,-1.52114 6.879485,-4.28999 9.812819,-6.153 7.924438,-5.03294 24.501681,-14.93583 31.333332,-18.71784 3.3,-1.82689 7.319757,-4.05392 8.932792,-4.94895 C 73.818329,49.53713 93.182474,39.73927 102,35.63075 c 5.31666,-2.4773 10.11666,-4.86849 10.66666,-5.31375 0.55,-0.44526 1.75,-0.97433 2.66667,-1.1757 2.61555,-0.57458 10.26828,-3.5888 14.49005,-5.70727 3.55121,-1.78198 26.1508,-9.93529 39.50995,-13.63524 43.9958,-12.18509 46.04657,-10.50827 72.85432,-13.87128 10.40243,-1.30497 46.89058,-0.0846 53.14568,0.68186 22.31288,2.73407 34.54931,6.46799 52.66666,12.16069 11.30496,3.55216 13.44584,4.39617 25.50596,10.20716 18.75042,9.03462 35.67611,19.22604 53.56844,33.07952 7.55222,5.84745 19.10007,15.74896 19.47669,16.69996 0.20097,0.50746 -3.33476,4.873 -9.32277,11.51076 -2.64031,2.92681 -2.00303,3.25986 -13.56165,-7.08734 -6.17865,-5.53108 -27.72461,-20.90659 -35.66667,-25.45226 -6.52917,-3.737 -16.53905,-9.04246 -20.33333,-10.77713 -10.06313,-4.60065 -12.28092,-5.5724 -16.44704,-7.20647 -2.44587,-0.95934 -4.84587,-1.7461 -5.33333,-1.74836 -0.48746,-0.002 -1.7863,-0.47515 -2.8863,-1.05087 -4.30045,-2.25076 -30.43355,-9.06703 -31.32905,-8.17153 -0.14485,0.14485 1.01741,1.65828 2.58279,3.36319 51.08548,55.63909 18.37097,184.25583 -43.54128,171.18207 z m 13.5653,-19.30037 C 321.4158,165.62837 334.01759,78.10999 303.75125,38.7766 283.35557,12.27089 251.88499,22.36812 240.71988,59 c -0.44703,1.46667 -1.07936,3.26667 -1.40518,4 -0.32581,0.73334 -0.89481,2.53334 -1.26442,4 -6.77741,26.89334 -4.7097,56.21356 5.5947,79.33334 2.82523,6.33891 7.33988,13.07783 11.95025,17.83789 8.99676,9.28884 17.79042,12.30785 28.68252,9.84716 z"
       id="path1"
       sodipodi:nodetypes="ssssscsssssssssssssssssssssssssssssssssscsss" /><text
       xml:space="preserve"
       style="font-style:normal;font-variant:normal;font-weight:normal;font-stretch:normal;font-size:42.6667px;font-family:Cinzel;-inkscape-font-specification:Cinzel;text-align:start;writing-mode:lr-tb;direction:ltr;text-anchor:start;fill:none;stroke:#000000;stroke-width:1;stroke-dasharray:none"
       x="110.0345"
       y="-148.3493"
       id="text1"><tspan
         sodipodi:role="line"
         id="tspan1"
         x="110.0345"
         y="-148.3493"
         style="font-style:normal;font-variant:normal;font-weight:500;font-stretch:normal;font-size:42.6667px;font-family:Cinzel;-inkscape-font-specification:'Cinzel Medium';fill:#000000;fill-opacity:1;stroke-width:1;stroke-dasharray:none">PADOTOP<tspan
   style="font-style:normal;font-variant:normal;font-weight:500;font-stretch:normal;font-size:50.6667px;font-family:Cinzel;-inkscape-font-specification:'Cinzel Medium'"
   id="tspan4">ì</tspan>A</tspan></text><text
       xml:space="preserve"
       style="font-style:normal;font-variant:normal;font-weight:normal;font-stretch:normal;font-size:37.3333px;font-family:Garamond;-inkscape-font-specification:Garamond;text-align:start;writing-mode:lr-tb;direction:ltr;text-anchor:start;fill:#000000;fill-opacity:1;stroke:#000000;stroke-width:1;stroke-dasharray:none"
       x="141.46445"
       y="-78.451065"
       id="text2"><tspan
         sodipodi:role="line"
         id="tspan2"
         x="141.46445"
         y="-78.451065"
         style="font-size:37.3333px">#l'isolachec'è</tspan></text><text
       xml:space="preserve"
       style="font-style:normal;font-variant:normal;font-weight:normal;font-stretch:normal;font-size:53.3333px;font-family:Cinzel;-inkscape-font-specification:Cinzel;text-align:start;writing-mode:lr-tb;direction:ltr;text-anchor:start;fill:#000000;fill-opacity:1;stroke:#000000;stroke-width:1;stroke-dasharray:none"
       x="360.58044"
       y="-136.02588"
       id="text3"><tspan
         sodipodi:role="line"
         id="tspan3"
         x="360.58044"
         y="-136.02588"
         style="font-size:53.3333px" /></text></g></svg>
